Genre:Comedy | Drama
Language:English  http://www.imdb.com/title/tt0437405/
Source:BluRay.x264-DEPRAViTY


Format                           : Matroska
File size                        : 2.00 GiB
Duration                         : 1h 50mn
Overall bit rate                 : 2 585 Kbps


Video
Format settings, CABAC           : Yes
Format settings, ReFrames        : 4 frames
Format settings, GOP             : M=1, N=32
Codec ID                         : V_MPEG4/ISO/AVC
Duration                         : 1h 50mn
Bit rate                         : 2 200 Kbps
Width                            : 1 280 pixels
Height                           : 688 pixels
Display aspect ratio             : 1.860
Frame rate mode                  : Variable
Frame rate                       : 23.976 fps
Color space                      : YUV
Chroma subsampling               : 4:2:0
Bit depth                        : 8 bits
Scan type                        : Progressive
Bits/(Pixel*Frame)               : 0.104
Stream size                      : 1.66 GiB (83%)
Writing library                  : x264


Audio
ID                               : 2
Format                           : AC-3
Format/Info                      : Audio Coding 3
Mode extension                   : CM (complete main)
Codec ID                         : A_AC3
Duration                         : 1h 50mn
Bit rate mode                    : Constant
Bit rate                         : 384 Kbps
Channel(s)                       : 6 channels
Channel positions                : Front: L C R, Side: L R, LFE
Sampling rate                    : 48.0 KHz
Bit depth                        : 16 bits
Video delay                      : -1mn 5s
Stream size                      : 304 MiB (15%)
Language                         : English


   
Plot:
 A washed-up writer forms an unlikely friendship with a teenager from Long Island

 
http://shareimage.org/images/zmfi8x1fefugy10dy00.png 
http://shareimage.org/images/9gser88m6h4nzveni5l.png 
http://shareimage.org/images/5tkdanxouqcjt3r7ntrs.png 
http://shareimage.org/images/r9o2c4nomxf1gkgi25h1.png